VIDEO INFO:

Format                           : Matroska
Format version                   : Version 2
File size                        : 3.28 GiB
Duration                         : 1h 24mn
Overall bit rate                 : 5 563 Kbps
Encoded date                     : UTC 2011-08-10 21:55:37
Writing application              : mkvmerge v4.9.1 ('Ich will') gemaakt op Jul 11 2011 23:53:15
Writing library                  : libebml v1.2.1 + libmatroska v1.1.1

Video
ID                               : 1
Format                           : AVC
Format/Info                      : Advanced Video Codec
Format profile                   : High@L4.1
Format settings, CABAC           : Yes
Format settings, ReFrames        : 5 frames
Format settings, GOP             : M=1, N=55
Codec ID                         : V_MPEG4/ISO/AVC
Duration                         : 1h 24mn
Bit rate                         : 4 922 Kbps
Width                            : 1 200 pixels
Height                           : 720 pixels
Display aspect ratio             : 1.667
Frame rate                       : 23.976 fps
Color space                      : YUV
Chroma subsampling               : 4:2:0
Bit depth                        : 8 bits
Scan type                        : Progressive
Bits/(Pixel*Frame)               : 0.238
Stream size                      : 2.84 GiB (87%)
Writing library                  : x264 core 116 r2044 392e762
Encoding settings                : cabac=1 / ref=5 / deblock=1:0:0 / analyse=0x3:0x113 / me=umh / subme=8 / psy=1 / psy_rd=1.00:0.00 / mixed_ref=1 / me_range=16 / chroma_me=1 / trellis=1 / 8x8dct=1 / cqm=0 / deadzone=21,11 / fast_pskip=1 / chroma_qp_offset=-2 / threads=12 / sliced_threads=0 / nr=0 / decimate=1 / interlaced=0 / bluray_compat=0 / constrained_intra=0 / bframes=3 / b_pyramid=2 / b_adapt=2 / b_bias=0 / direct=3 / weightb=1 / open_gop=0 / weightp=2 / keyint=240 / keyint_min=24 / scenecut=40 / intra_refresh=0 / rc_lookahead=50 / rc=2pass / mbtree=1 / bitrate=4922 / ratetol=1.0 / qcomp=0.60 / qpmin=0 / qpmax=69 / qpstep=4 / cplxblur=20.0 / qblur=0.5 / ip_ratio=1.40 / aq=1:1.00
Language                         : English

Audio
ID                               : 2
Format                           : AC-3
Format/Info                      : Audio Coding 3
Mode extension                   : CM (complete main)
Codec ID                         : A_AC3
Duration                         : 1h 24mn
Bit rate mode                    : Constant
Bit rate                         : 640 Kbps
Channel(s)                       : 1 channel
Channel positions                : Front: C
Sampling rate                    : 48.0 KHz
Bit depth                        : 16 bits
Compression mode                 : Lossy
Stream size                      : 386 MiB (12%)
Language                         : English

Text
ID                               : 3
Format                           : UTF-8
Codec ID                         : S_TEXT/UTF8
Codec ID/Info                    : UTF-8 Plain Text
Language                         : Dutch

-------------------------------------

Verenigde Staten
Misdaad / Film-Noir
85 minuten

geregisseerd door Stanley Kubrick
met Sterling Hayden, Elisha Cook Jr. en Marie Windsor

Johnny Clay heeft een plan. Na 5 jaar in de gevangenis op Alcatraz te hebben doorgebracht besluit hij dat als hij dan toch misdaden pleegt, hij er maar beter voor kan zorgen dat de opbrengst ervan het risico op een straf waard is. Hij verzint een slim plan om een grote som geld van de plaatselijke racebaan te stelen. Het enige minpunt van zijn plan is dat hij geen rekening houdt met de hebberige vrouw van één van de kassamedewerkers en haar vriend.

-Ondertiteling (nederlands) in film met de mogelijkheid deze aan/uit te zetten.